<svg version="1.2" xmlns="http://www.w3.org/2000/svg" viewBox="0 0 565 425" width="720" height="542"><style>.a{fill:#040404}</style><path fill-rule="evenodd" class="a" d="m366.5 34.5c13.7 6.5 13.7 6.5 19.9 5.6 112.4-17.5 166.7 5.9 177 76 8.3 56-13 83.7-78.4 101.9-4.7 1.3-8.6 2.5-8.8 2.6-0.2 0.1 1 4.6 2.7 10 16.9 55 8.2 117.3-20.1 145.6-60.7 60.4-207.2 64.8-291.8 8.7-41.7-27.6-63.2-65.7-64.7-114.6-0.6-18.2-0.6-18.2-3.7-17.5-51.4 11.5-89.8-15.2-96.7-67.3-11.2-85.6 38.9-137.4 114.4-118.3 10.8 2.8 10.8 2.8 22.5-6.5 41.6-33.2 80.7-55.1 106.3-59.6 23.2-4.2 69.5 8.6 121.4 33.4zm41.9 130.9c-32 10.4-29.2 56.7 3.8 63.5 24.8 5.2 45.9-20.1 36.8-44.2-5.8-15.3-25-24.5-40.6-19.3zm-201.9 7c-26.3 6.5-42.7 33.3-36 59.1 11.7 44.7 70.7 50.3 91.3 8.6 17.5-35.4-16.7-77.3-55.3-67.7zm129.8 65.1c-36.5 18.3-42.7 91.9-10.5 123.9 19.6 19.6 46.5 12.8 60.7-15.4 27.4-54.3-7.6-129.9-50.2-108.5z"/></svg>